<svg xmlns="http://www.w3.org/2000/svg" xmlns:xlink="http://www.w3.org/1999/xlink" version="1.1" x="0px" y="0px" viewBox="0 0 256 256" enable-background="new 0 0 256 256" xml:space="preserve">
<g><g><g><path fill="#000000" d="M103.9,15.4v5.4h53.6h53.6v77.8v77.8h5.4h5.4V93.1V10h-59h-59V15.4L103.9,15.4z"/><path fill="#000000" d="M61,36.8v5.4h64.4h64.4v91.2v91.2h5.4h5.4V128V31.5h-69.7H61V36.8z"/><path fill="#000000" d="M34.1,149.5V246h72.4H179v-96.5V52.9h-72.4H34.1V149.5z M168.2,149.5v85.8h-61.7H44.9v-85.8V63.6h61.7h61.7V149.5L168.2,149.5z"/><path fill="#000000" d="M79.8,102.3c-17,4.6-27.5,22.2-23.2,38.8c5,19.2,26.4,29.7,44.1,21.6l3.6-1.7l18.4,18.4l18.4,18.4l3.8-3.8l3.9-3.9l-18-18.1l-18-18.1l1.9-3c8-12.4,6.5-28.8-3.8-39.5C102.9,102.9,90.7,99.3,79.8,102.3z M96.9,113.9c4.2,2,8.2,6.2,10.4,10.4c2.3,4.8,2.3,13.3-0.1,18.1c-2.1,4.3-6.1,8.3-10.4,10.4c-4.8,2.3-13.3,2.4-18.1,0.1c-17.4-8.6-15.9-34.1,2.5-40C85.4,111.5,92.8,112,96.9,113.9z"/></g></g></g>
</svg>