 <svg version="1.0" xmlns="http://www.w3.org/2000/svg"  width="300.000000pt" height="300.000000pt" viewBox="0 0 300.000000 300.000000"  preserveAspectRatio="xMidYMid meet">  <g transform="translate(0.000000,300.000000) scale(0.100000,-0.100000)" fill="#ffffff" stroke="none"> <path d="M925 2786 c-68 -31 -105 -96 -105 -186 l0 -46 -367 -104 c-351 -99 -370 -106 -405 -141 -38 -37 -45 -58 -39 -134 3 -33 387 -1378 402 -1406 15 -29 68 -61 109 -66 28 -4 79 6 176 33 113 32 138 42 147 62 9 19 7 27 -10 44 -19 18 -25 19 -58 8 -20 -7 -37 -10 -39 -8 -73 116 -150 166 -261 168 l-50 1 -142 497 -142 497 22 14 c12 8 43 36 68 61 52 53 79 118 79 192 0 26 1 48 3 48 1 0 397 113 494 141 10 3 14 -48 15 -228 l3 -231 -52 5 c-74 8 -131 -16 -187 -78 -57 -63 -80 -131 -80 -229 1 -120 58 -255 133 -318 48 -40 108 -72 145 -77 l41 -6 -3 -112 c-2 -63 1 -128 8 -149 14 -47 51 -92 90 -108 22 -9 29 -17 25 -29 -4 -9 -9 -50 -12 -92 -10 -141 42 -295 137 -409 56 -67 175 -145 263 -172 94 -30 255 -32 337 -4 197 66 345 221 395 412 17 64 20 202 6 251 -8 29 -6 33 27 54 66 43 77 76 77 226 l0 131 40 7 c166 26 307 258 276 453 -13 81 -32 123 -81 176 -53 57 -111 81 -183 73 l-52 -5 0 234 c0 204 2 233 15 228 15 -6 491 -144 497 -144 2 0 3 -22 3 -48 0 -74 27 -139 79 -192 25 -25 56 -53 68 -61 l22 -14 -142 -497 -142 -497 -50 -1 c-111 -2 -188 -52 -261 -168 -2 -2 -18 1 -38 8 -26 8 -41 8 -56 0 -22 -12 -27 -52 -7 -68 19 -15 262 -82 299 -82 40 0 96 28 120 61 20 27 405 1365 409 1419 5 75 -1 92 -38 129 -36 35 -56 42 -405 141 l-368 104 0 46 c0 25 -5 61 -10 80 -11 41 -61 94 -103 109 -32 12 -486 15 -503 3 -21 -14 -25 -45 -8 -63 15 -17 33 -19 141 -19 121 0 123 0 123 -22 1 -92 128 -222 238 -244 l32 -6 0 -584 0 -584 -22 0 c-30 -1 -107 -36 -134 -61 l-21 -20 -66 49 c-110 84 -226 117 -376 110 -120 -6 -213 -41 -311 -115 -68 -51 -69 -51 -87 -31 -22 26 -110 68 -140 68 l-23 0 0 583 0 582 59 17 c40 12 74 31 109 63 52 47 102 131 102 172 0 23 1 23 123 23 108 0 126 2 141 19 17 18 13 49 -8 63 -6 4 -117 8 -246 7 -174 0 -243 -3 -265 -13z m265 -31 c0 -3 -13 -24 -30 -47 -22 -30 -30 -36 -30 -21 0 10 -7 28 -15 39 -22 30 -18 34 30 34 25 0 45 -2 45 -5z m710 2 c0 -1 -8 -19 -18 -39 l-19 -36 -26 34 c-15 18 -27 35 -27 38 0 4 20 6 45 6 25 0 45 -1 45 -3z m-813 -89 c-22 -53 -67 -99 -122 -124 l-50 -24 -3 67 c-4 98 12 116 109 123 41 3 75 2 77 -2 2 -3 -3 -21 -11 -40z m983 15 c16 -20 20 -41 20 -94 l0 -69 -37 15 c-21 9 -49 24 -63 34 -31 22 -77 88 -85 121 l-6 25 75 -3 c67 -3 78 -6 96 -29z m-950 -61 c0 -14 -62 -82 -84 -94 -12 -6 0 11 27 38 26 26 47 52 47 56 0 4 2 8 5 8 3 0 5 -4 5 -8z m840 -89 c0 -10 -31 21 -52 51 -18 26 -15 25 15 -8 21 -21 37 -41 37 -43z m-1076 -7 c8 -14 24 -27 34 -30 17 -6 16 -10 -14 -41 l-32 -35 -1 -451 c0 -248 -3 -454 -6 -457 -3 -3 -5 85 -5 195 0 197 0 200 -24 222 -13 12 -36 26 -52 31 l-29 8 29 1 c17 1 40 11 53 23 23 21 23 25 23 238 0 232 -6 260 -53 260 -19 0 -17 3 13 30 43 36 44 36 64 6z m1281 4 c10 -11 32 -24 49 -29 l31 -9 -31 -1 c-18 -1 -39 -10 -50 -22 -17 -19 -19 -41 -22 -221 -5 -262 0 -273 112 -277 69 -2 71 -11 3 -11 -49 0 -61 -4 -92 -31 l-35 -31 0 246 c0 254 -5 293 -43 324 -14 12 -13 17 16 47 38 40 39 40 62 15z m-1877 -210 l-20 -39 -25 25 c-14 14 -23 27 -21 29 7 8 53 24 69 24 15 1 14 -4 -3 -39z m2460 29 l30 -10 -21 -34 c-26 -40 -37 -44 -37 -12 0 13 -9 33 -20 45 -20 21 -20 22 -2 22 11 0 33 -5 50 -11z m-2527 -116 c-6 -21 -20 -52 -30 -70 -20 -32 -67 -70 -77 -61 -2 3 -10 31 -16 62 -16 72 -8 85 68 112 67 25 72 20 55 -43z m2683 5 c7 -12 7 -33 -2 -74 -6 -31 -14 -59 -17 -62 -10 -10 -60 35 -82 74 -12 22 -25 59 -29 82 l-7 42 63 -22 c35 -13 68 -31 74 -40z m-2842 10 c-6 -7 -12 -31 -14 -52 l-3 -40 -14 27 c-12 23 -11 28 10 55 13 16 26 28 28 26 2 -2 -1 -9 -7 -16z m2904 -66 c-15 -15 -16 -13 -16 23 0 39 0 39 16 16 15 -21 15 -24 0 -39z m-97 -112 c13 0 33 8 44 18 19 17 19 16 12 -17 -10 -45 -34 -101 -35 -79 0 22 -55 85 -81 93 -10 4 -19 13 -19 21 0 10 8 7 27 -11 15 -14 39 -25 52 -25z m-2741 0 c27 0 28 -12 2 -35 -11 -10 -20 -25 -21 -34 -1 -21 -38 59 -39 83 0 18 1 18 18 3 10 -10 28 -17 40 -17z m2243 -147 c18 -20 19 -23 4 -13 -32 24 -47 40 -37 40 4 0 19 -12 33 -27z m-1551 -271 c6 -295 9 -282 -69 -243 -149 76 -210 333 -109 455 38 47 59 56 123 53 l50 -2 5 -263z m1531 220 c109 -124 52 -384 -102 -463 -78 -39 -74 -50 -71 233 1 139 5 259 7 267 4 10 21 12 67 9 58 -4 64 -7 99 -46z m74 -342 c-4 -12 -9 -19 -12 -17 -3 3 -2 15 2 27 4 12 9 19 12 17 3 -3 2 -15 -2 -27z m-25 -39 c0 -13 -100 -121 -112 -121 -5 0 15 25 46 55 31 31 56 60 56 65 0 6 2 10 5 10 3 0 5 -4 5 -9z m-1521 -159 c1 -43 6 -58 26 -78 l25 -25 -29 -25 c-26 -21 -31 -33 -34 -82 -2 -33 -4 -10 -5 53 -3 119 -12 144 -62 164 -20 8 -21 10 -6 10 24 1 66 39 67 60 1 39 18 -28 18 -77z m1321 25 c14 0 36 3 49 7 15 5 21 5 17 -2 -3 -6 -19 -13 -36 -17 -16 -3 -40 -15 -54 -26 -22 -18 -24 -27 -31 -146 -4 -71 -12 -139 -17 -153 -4 -14 -25 -39 -46 -57 l-37 -32 -5 -113 -5 -113 -6 95 c-5 73 -14 112 -38 169 -17 41 -29 77 -27 79 2 2 7 -5 10 -15 8 -23 61 -59 83 -55 43 9 73 66 73 138 0 57 -3 64 -30 88 l-30 25 25 25 c20 20 25 35 25 75 0 74 7 86 34 55 12 -14 33 -26 46 -27z m-480 -89 c10 -6 7 -7 -10 -2 -14 3 -32 11 -40 16 -10 6 -7 7 10 2 14 -3 32 -11 40 -16z m-455 -21 c-34 -18 -91 -64 -132 -106 -67 -68 -73 -72 -67 -44 5 24 0 37 -26 67 -36 40 -30 46 15 16 40 -26 57 -25 95 6 34 29 148 94 165 94 6 -1 -17 -15 -50 -33z m315 13 c156 -25 294 -128 363 -270 83 -170 65 -359 -48 -507 -51 -68 -97 -105 -174 -144 -72 -36 -128 -48 -216 -49 -219 0 -414 151 -471 365 -8 28 -14 82 -14 120 0 268 198 472 480 494 8 0 44 -4 80 -9z m273 -66 c50 -35 59 -35 120 -2 19 10 18 7 -6 -21 -29 -35 -33 -60 -16 -93 6 -11 -28 19 -74 66 -47 47 -92 86 -100 86 -8 0 -21 7 -28 17 -12 14 -10 14 21 -2 19 -10 57 -33 83 -51z m-904 -14 c5 0 27 -13 49 -30 l42 -30 -33 -60 c-17 -33 -36 -60 -40 -60 -4 0 -19 11 -32 25 -22 21 -25 33 -25 96 0 61 2 70 16 65 9 -3 19 -6 23 -6z m1141 -59 c0 -54 -4 -74 -21 -95 -22 -28 -39 -34 -39 -13 0 7 -14 35 -30 61 -23 36 -28 51 -20 61 11 14 89 55 103 55 4 0 7 -31 7 -69z m-1174 -130 c34 -26 66 -27 89 -1 27 30 28 19 4 -46 -12 -33 -24 -52 -27 -44 -2 8 -29 39 -58 67 -30 29 -54 61 -53 70 0 15 2 14 9 -3 4 -12 21 -31 36 -43z m1698 2 c-4 -21 -11 -49 -16 -62 l-8 -23 -21 26 c-11 14 -28 26 -37 26 -9 0 2 9 26 20 23 10 45 26 48 35 11 27 15 16 8 -22z m-2184 -10 l35 -18 -27 -28 c-29 -30 -31 -29 -46 26 -12 42 -9 44 38 20z m2069 -17 c-2 -2 -17 -6 -34 -10 -22 -5 -26 -4 -15 4 14 9 59 15 49 6z m-105 -45 c-21 -16 -47 -45 -58 -65 -18 -34 -18 -37 -2 -62 l18 -26 -33 7 c-18 4 -49 13 -69 21 -33 12 -33 13 -8 13 17 1 37 13 55 32 69 75 108 109 127 109 5 0 -8 -13 -30 -29z m-1879 -2 c41 -10 135 -79 135 -98 0 -4 -26 -15 -57 -24 -79 -22 -103 -9 -124 66 -5 21 -13 45 -16 53 -6 17 4 17 62 3z m2032 -3 c-3 -8 -11 -32 -16 -53 -21 -75 -45 -88 -124 -66 -31 9 -57 20 -57 24 0 17 93 88 128 97 56 15 75 14 69 -2z m-1813 -105 c20 -8 20 -8 1 -18 -11 -6 -35 -14 -53 -18 l-34 -7 18 26 c14 22 15 32 5 52 -18 40 -13 42 15 6 15 -19 36 -37 48 -41z"/> <path d="M744 1675 c0 -104 2 -146 3 -92 2 54 2 139 0 190 -1 51 -3 7 -3 -98z"/> <path d="M2254 1745 c0 -66 1 -92 3 -57 2 34 2 88 0 120 -2 31 -3 3 -3 -63z"/> <path d="M2253 1555 c0 -38 2 -53 4 -32 2 20 2 52 0 70 -2 17 -4 1 -4 -38z"/> <path d="M1482 1088 c-7 -7 -12 -27 -12 -45 0 -24 -4 -31 -14 -27 -22 9 -102 -31 -121 -60 -26 -39 -29 -104 -8 -146 28 -54 89 -80 185 -80 71 0 79 -2 93 -24 13 -19 14 -29 5 -45 -18 -34 -44 -41 -149 -41 -90 0 -101 -2 -111 -20 -8 -14 -8 -26 0 -40 9 -16 21 -20 65 -20 52 0 55 -1 55 -26 0 -38 18 -64 43 -64 32 0 47 18 47 57 0 28 4 33 23 33 33 0 84 35 102 69 31 61 12 146 -43 186 -21 15 -49 21 -125 25 -103 5 -117 12 -117 57 0 44 23 53 141 53 107 0 110 1 121 25 17 38 -14 68 -64 63 -37 -3 -38 -2 -38 27 0 36 -16 55 -45 55 -12 0 -26 -5 -33 -12z m82 -105 c4 -10 -10 -13 -51 -13 l-57 0 28 29 c28 29 29 29 52 13 13 -9 25 -23 28 -29z m-176 -51 c-13 -16 -25 -25 -27 -20 -4 11 28 48 41 48 5 0 -1 -13 -14 -28z m22 -146 c0 -16 -31 17 -47 48 l-15 31 31 -35 c16 -19 30 -39 31 -44z m229 -45 c29 -41 28 -95 -4 -126 -13 -14 -29 -25 -35 -25 -6 0 2 12 19 26 25 21 31 34 31 65 0 27 -5 41 -19 48 -20 11 -36 41 -21 41 5 0 18 -13 29 -29z m-84 -161 c3 -5 -5 -21 -18 -36 l-24 -26 -22 28 c-17 21 -19 29 -9 36 18 11 66 10 73 -2z"/> <path d="M1932 824 c-9 -147 -129 -327 -273 -407 -75 -41 -126 -56 -229 -68 -72 -8 -71 -8 26 -4 94 4 106 7 182 45 138 70 225 166 278 306 17 47 24 81 21 113 -2 29 -4 35 -5 15z"/> <path d="M1478 2738 c8 -8 17 -8 34 0 22 10 21 11 -11 11 -27 1 -32 -2 -23 -11z"/> <path d="M2254 2225 c0 -104 2 -146 3 -92 2 54 2 139 0 190 -1 51 -3 7 -3 -98z"/> <path d="M744 2225 c0 -93 2 -133 3 -88 2 45 2 122 0 170 -1 48 -3 12 -3 -82z"/> <path d="M1417 2236 c-156 -56 -255 -275 -214 -472 28 -130 86 -218 179 -269 43 -24 65 -30 118 -30 108 0 198 62 256 177 132 260 -14 607 -256 607 -25 0 -62 -6 -83 -13z m-54 -84 c-12 -9 -31 -28 -43 -42 -18 -22 -20 -22 -11 -3 11 21 57 63 70 63 3 0 -4 -8 -16 -18z m244 -28 c23 -18 52 -57 73 -99 33 -66 35 -75 35 -170 0 -81 -4 -109 -22 -147 -32 -71 -70 -115 -117 -137 -108 -53 -210 2 -273 144 -13 29 -17 67 -17 140 -1 89 2 107 28 162 48 104 107 146 198 140 46 -2 66 -10 95 -33z m55 19 c23 -28 33 -50 12 -28 -10 11 -25 26 -33 33 -8 6 -10 12 -4 12 5 0 17 -8 25 -17z"/> <path d="M2251 1169 c0 -74 -7 -132 -17 -161 -19 -56 -72 -121 -114 -138 -20 -8 -28 -16 -21 -23 14 -14 97 59 129 113 24 40 27 57 30 155 2 61 2 124 -1 140 -2 17 -5 -22 -6 -86z"/> <path d="M744 1140 c1 -127 3 -138 28 -181 15 -25 35 -52 44 -60 20 -16 18 -11 -31 60 -28 41 -29 50 -36 180 l-7 136 2 -135z"/> <path d="M850 876 c0 -10 50 -34 54 -27 3 5 -8 14 -24 20 -17 5 -30 8 -30 7z"/> </g> </svg> 