 <svg  version="1.0" xmlns="http://www.w3.org/2000/svg"  width="900.000000pt" height="900.000000pt" viewBox="0 0 900.000000 900.000000"  preserveAspectRatio="xMidYMid meet">  <g transform="translate(0.000000,900.000000) scale(0.100000,-0.100000)" fill="#ffffff" stroke="none"> <path d="M1686 8191 c-11 -8 -27 -21 -33 -29 -10 -13 -13 -760 -13 -3661 0 -2005 3 -3656 6 -3668 3 -12 17 -29 30 -38 21 -14 304 -15 2814 -15 2164 0 2794 2 2809 12 11 6 24 23 30 35 8 17 11 1100 11 3674 l0 3650 -26 24 c-15 14 -30 25 -33 25 -3 0 -1259 1 -2790 3 -2369 2 -2787 0 -2805 -12z m5474 -163 c0 -5 0 -1596 0 -3538 0 -1941 0 -3533 0 -3537 0 -5 -1201 -8 -2670 -8 -1773 0 -2670 3 -2670 10 0 9 0 7064 0 7075 0 3 1202 5 2670 5 1469 0 2670 -3 2670 -7z"/> <path d="M2717 7637 c-13 -4 -31 -20 -40 -37 -15 -24 -16 -36 -6 -77 15 -67 -5 -178 -47 -270 -24 -52 -53 -91 -102 -140 -93 -93 -167 -130 -296 -149 -129 -19 -129 -19 -149 -53 -29 -50 -17 -85 45 -125 23 -15 34 -16 85 -6 32 7 81 16 108 21 28 5 59 12 70 17 96 43 127 60 175 95 161 117 280 321 280 480 0 36 4 68 9 72 5 3 746 6 1645 8 1355 2 1637 0 1641 -11 3 -8 5 -42 5 -76 0 -58 17 -123 54 -206 42 -92 133 -199 226 -267 48 -35 79 -52 175 -95 11 -5 43 -12 70 -17 28 -5 76 -14 108 -21 51 -10 62 -9 85 6 63 41 75 76 42 129 -19 30 -23 32 -133 47 -90 13 -128 23 -178 50 -91 48 -191 151 -233 241 -41 89 -62 204 -47 267 12 53 -8 107 -43 115 -34 9 -3524 11 -3549 2z"/> <path d="M4435 7021 c-16 -5 -48 -9 -70 -10 -22 0 -49 -7 -60 -15 -11 -7 -39 -17 -62 -21 -24 -4 -45 -11 -49 -16 -3 -5 -29 -21 -57 -35 -70 -34 -108 -62 -170 -126 -79 -81 -97 -107 -149 -213 -11 -22 -23 -47 -28 -55 -4 -9 -11 -40 -15 -70 -4 -30 -14 -67 -21 -82 -18 -35 -18 -165 0 -199 7 -14 17 -48 21 -75 5 -27 9 -51 11 -54 1 -3 5 -15 9 -27 12 -38 60 -123 96 -170 107 -143 247 -239 425 -292 98 -29 251 -29 349 0 84 25 117 40 128 56 4 7 18 13 30 13 12 0 45 15 72 34 53 35 195 167 195 181 0 4 18 36 39 70 23 36 49 96 61 141 12 44 28 99 36 124 17 54 19 163 2 193 -11 21 -24 70 -33 127 -5 31 -83 186 -110 219 -37 45 -133 141 -141 141 -4 0 -17 9 -29 20 -11 10 -41 30 -66 43 -24 13 -54 29 -64 35 -78 42 -287 80 -350 63z m134 -183 c36 -6 70 -15 76 -20 5 -4 19 -8 31 -8 13 0 26 -4 29 -10 3 -5 24 -14 47 -20 22 -6 50 -20 61 -31 l21 -19 -30 -33 c-57 -61 -64 -73 -96 -163 -32 -88 -33 -92 -33 -260 0 -123 4 -179 14 -200 7 -16 20 -45 28 -64 34 -80 60 -125 87 -153 l29 -31 -29 -23 c-16 -12 -36 -23 -44 -23 -8 -1 -33 -9 -55 -20 -22 -11 -52 -19 -67 -20 -15 0 -30 -4 -33 -10 -4 -6 -53 -10 -115 -10 -62 0 -111 4 -115 10 -3 6 -18 10 -32 10 -14 0 -41 7 -61 16 -38 16 -124 56 -131 61 -2 1 10 19 26 40 17 21 39 56 51 78 18 36 27 55 60 135 14 33 16 57 16 230 0 139 -1 149 -32 234 -18 50 -38 97 -46 105 -7 9 -26 31 -42 49 -35 41 -36 50 -4 67 59 32 112 55 125 55 9 0 23 4 33 10 18 10 99 27 141 29 13 0 53 -4 90 -11z m281 -23 c0 -8 3 -15 8 -15 15 0 182 -158 182 -172 0 -14 -51 0 -64 18 -9 12 -17 12 -46 3 -70 -24 -80 -31 -74 -54 4 -15 0 -24 -10 -28 -23 -9 -21 39 3 64 16 17 18 31 14 82 -6 70 -17 97 -38 97 -8 0 -15 5 -15 10 0 6 9 10 20 10 11 0 20 -7 20 -15z m-730 -101 c3 -32 13 -70 22 -83 13 -18 14 -29 7 -43 -13 -25 -37 -8 -41 30 -3 26 -5 27 -65 25 -62 -2 -63 -1 -63 26 0 22 12 36 57 69 32 23 62 41 68 39 5 -2 12 -30 15 -63z m-54 -111 c3 -16 10 -39 16 -53 39 -94 54 -178 52 -293 -1 -70 -6 -129 -14 -145 -33 -72 -40 -90 -48 -122 -6 -27 -14 -36 -33 -38 -21 -3 -28 5 -51 57 -15 33 -30 81 -34 108 -3 26 -13 65 -21 85 -24 60 3 257 43 320 13 21 24 46 24 57 0 34 12 51 36 51 18 0 25 -7 30 -27z m910 -10 c7 -33 24 -72 40 -93 16 -22 38 -144 38 -220 0 -36 -8 -92 -18 -125 -10 -33 -22 -77 -27 -97 -5 -20 -17 -53 -26 -73 -14 -29 -22 -35 -42 -33 -19 2 -27 11 -33 38 -9 33 -26 78 -50 127 -6 12 -12 75 -12 140 -2 123 12 196 55 290 10 24 19 50 19 58 0 9 9 15 25 15 19 0 26 -6 31 -27z m-86 -655 c19 -25 25 -27 65 -21 37 5 46 3 51 -12 5 -13 -11 -35 -66 -86 -40 -38 -76 -69 -80 -69 -4 0 -5 36 -2 79 3 60 1 87 -12 112 -9 17 -16 42 -16 53 1 20 2 20 20 -4 10 -14 29 -37 40 -52z m-940 22 c6 -11 7 -20 2 -20 -10 0 -32 21 -32 32 0 16 19 8 30 -12z m197 4 c3 -8 -1 -27 -8 -41 -9 -16 -14 -54 -13 -100 1 -40 -2 -73 -6 -73 -4 0 -26 23 -49 50 -23 28 -49 50 -57 50 -8 0 -14 9 -14 19 0 11 -5 23 -11 27 -29 18 55 35 94 19 10 -4 17 -3 17 3 0 21 20 62 30 62 6 0 13 -7 17 -16z"/> <path d="M2144 6639 c-8 -14 18 -31 30 -19 9 9 0 30 -14 30 -5 0 -12 -5 -16 -11z"/> <path d="M6805 6640 c-9 -15 4 -30 20 -23 8 3 15 9 15 13 0 12 -29 20 -35 10z"/> <path d="M2204 6609 c-10 -17 13 -36 27 -22 12 12 4 33 -11 33 -5 0 -12 -5 -16 -11z"/> <path d="M6742 6603 c2 -10 10 -18 18 -18 22 0 18 29 -3 33 -14 3 -18 -1 -15 -15z"/> <path d="M2065 6588 c-3 -7 -4 -955 -3 -2107 l3 -2094 24 -8 c20 -8 22 -6 17 8 -4 9 -7 961 -7 2115 0 1836 -2 2098 -15 2098 -8 0 -17 -6 -19 -12z"/> <path d="M6882 4500 c3 -1841 1 -2102 -12 -2110 -24 -15 -5 -22 24 -9 l26 12 0 2098 c0 1903 -1 2097 -16 2103 -9 3 -18 6 -21 6 -2 0 -3 -945 -1 -2100z"/> <path d="M6727 6543 c-12 -11 -8 -823 3 -823 6 0 10 135 10 384 0 211 3 398 6 415 6 29 -3 40 -19 24z"/> <path d="M2241 6186 c1 -195 6 -361 10 -368 5 -7 9 152 9 355 0 252 -3 367 -11 367 -7 0 -10 -110 -8 -354z"/> <path d="M3020 6081 c-59 -10 -89 -34 -271 -218 -215 -218 -233 -252 -192 -365 14 -41 94 -124 602 -631 322 -321 627 -619 677 -663 108 -94 173 -149 274 -234 41 -35 140 -117 219 -184 79 -67 158 -132 175 -146 17 -14 88 -72 157 -130 70 -58 157 -130 194 -160 37 -30 73 -60 79 -65 6 -6 33 -28 61 -50 173 -139 270 -227 518 -474 l278 -276 -7 -61 c-5 -51 -3 -69 12 -96 31 -55 85 -118 127 -149 35 -26 48 -29 111 -29 39 0 78 5 86 10 8 5 88 82 177 171 170 170 183 188 183 272 0 75 -50 149 -140 207 -45 29 -55 31 -122 29 l-73 -3 -287 290 c-158 159 -311 319 -340 355 -29 36 -80 98 -113 139 -33 40 -71 87 -85 105 -14 17 -32 39 -40 47 -8 8 -40 46 -70 83 -30 38 -71 87 -90 110 -19 23 -60 73 -90 110 -30 38 -73 89 -95 115 -82 95 -130 154 -143 171 -7 10 -25 30 -40 46 -15 16 -64 74 -109 128 -45 55 -96 116 -113 135 -17 19 -59 69 -93 110 -88 106 -1224 1242 -1272 1273 -44 27 -91 36 -145 28z m100 -208 c12 -16 268 -275 569 -578 493 -496 603 -611 697 -725 16 -19 44 -51 62 -72 19 -20 43 -49 55 -65 23 -31 118 -145 128 -153 5 -5 100 -118 312 -374 45 -54 98 -118 117 -141 19 -23 60 -72 90 -110 30 -37 93 -113 139 -169 46 -55 99 -121 119 -146 20 -25 163 -172 318 -328 l282 -283 -41 -48 c-53 -61 -72 -67 -100 -33 -53 64 -529 533 -591 582 -38 30 -101 82 -140 115 -39 33 -91 76 -114 94 -50 39 -68 53 -138 113 -27 24 -72 61 -99 83 -26 22 -67 56 -90 75 -23 19 -73 60 -110 90 -37 30 -118 97 -179 149 -61 51 -131 110 -155 130 -68 57 -144 121 -171 145 -14 12 -72 62 -130 112 -112 97 -1240 1219 -1240 1233 0 11 325 338 342 344 18 6 43 -8 68 -40z m3154 -3224 c58 -46 58 -46 -91 -193 -130 -129 -154 -146 -178 -128 -23 16 -55 66 -55 86 0 13 42 63 118 138 128 129 151 140 206 97z"/> <path d="M5873 6080 c-18 -4 -50 -20 -70 -35 -21 -16 -298 -289 -617 -607 -562 -562 -579 -580 -580 -618 -1 -56 33 -90 90 -90 35 0 46 5 69 33 15 17 279 285 587 594 375 376 565 560 575 556 19 -7 343 -332 343 -343 0 -11 -1081 -1093 -1173 -1174 -60 -52 -67 -63 -67 -95 1 -39 21 -69 61 -89 23 -12 31 -12 60 3 19 10 309 292 645 626 532 532 612 615 627 657 21 58 21 79 1 139 -13 40 -44 77 -197 231 -100 100 -186 182 -191 182 -5 0 -17 6 -25 14 -20 17 -96 26 -138 16z"/> <path d="M2248 5765 c-4 -4 -7 -361 -8 -793 0 -538 3 -783 10 -776 7 7 9 268 8 793 -2 430 -6 779 -10 776z"/> <path d="M6720 5301 c0 -249 4 -392 10 -396 7 -4 10 128 10 389 0 257 -4 396 -10 396 -6 0 -10 -136 -10 -389z"/> <path d="M6727 4873 c-11 -11 -8 -293 3 -293 6 0 10 57 10 150 0 83 -1 150 -3 150 -2 0 -7 -3 -10 -7z"/> <path d="M6722 3493 c2 -582 7 -1057 11 -1055 5 1 8 251 8 555 -1 303 -1 778 -1 1055 0 329 -3 502 -10 502 -7 0 -9 -354 -8 -1057z"/> <path d="M2247 4153 c-11 -10 -8 -113 3 -113 6 0 10 27 10 60 0 61 -1 65 -13 53z"/> <path d="M2240 3755 c0 -163 4 -255 10 -255 6 0 10 92 10 255 0 163 -4 255 -10 255 -6 0 -10 -92 -10 -255z"/> <path d="M3841 3938 c-17 -18 -48 -54 -69 -79 -39 -47 -93 -113 -152 -184 -19 -23 -60 -73 -90 -110 -108 -133 -136 -163 -414 -444 l-281 -285 -74 3 c-69 2 -76 0 -126 -33 -65 -43 -118 -107 -134 -164 -10 -36 -9 -52 4 -98 15 -51 29 -68 163 -202 189 -188 198 -195 277 -194 72 0 91 8 157 70 71 66 99 129 96 211 l-3 66 285 280 c157 154 316 305 354 335 37 30 78 64 90 75 13 11 54 45 91 75 37 30 87 71 110 90 23 19 73 60 110 90 108 86 115 95 115 136 0 27 -7 46 -27 66 -39 40 -78 37 -133 -9 -93 -80 -139 -119 -176 -149 -22 -17 -85 -69 -140 -115 -56 -46 -133 -109 -170 -139 -80 -63 -594 -574 -594 -590 0 -5 -12 -10 -27 -9 -21 0 -39 14 -70 49 l-41 49 282 283 c249 250 317 323 376 400 8 11 44 55 80 97 36 43 90 109 120 146 30 38 76 92 101 121 51 57 65 96 50 137 -11 29 -30 41 -78 51 -27 6 -36 3 -62 -26z m-928 -1386 c64 -66 117 -127 117 -137 0 -25 -40 -82 -66 -94 -19 -8 -37 6 -163 130 -77 77 -141 143 -141 148 0 5 16 23 35 40 65 56 84 49 218 -87z"/> <path d="M2240 3350 c0 -73 4 -120 10 -120 6 0 10 47 10 120 0 73 -4 120 -10 120 -6 0 -10 -47 -10 -120z"/> <path d="M2239 2848 c0 -194 -1 -364 -2 -378 -1 -14 3 -27 8 -30 7 -3 11 127 13 378 1 255 -1 382 -8 382 -7 0 -10 -120 -11 -352z"/> <path d="M2195 2391 c-9 -16 3 -31 26 -31 14 0 19 6 17 17 -4 20 -33 29 -43 14z"/> <path d="M6747 2394 c-16 -16 -6 -35 16 -32 12 2 22 10 22 18 0 16 -26 25 -38 14z"/> <path d="M2142 2353 c2 -10 10 -18 18 -18 8 0 16 8 18 18 2 12 -3 17 -18 17 -15 0 -20 -5 -18 -17z"/> <path d="M6800 2356 c0 -8 5 -18 10 -21 13 -8 42 14 34 26 -9 15 -44 10 -44 -5z"/> <path d="M2091 2085 c-39 -44 -39 -74 -2 -114 25 -27 36 -31 82 -31 58 0 175 -26 199 -44 8 -6 31 -20 50 -31 49 -27 57 -33 117 -95 77 -80 118 -171 133 -295 8 -69 17 -105 29 -118 16 -17 105 -17 1792 -18 1732 0 1774 1 1790 20 9 11 21 60 28 117 16 124 58 215 134 294 64 66 74 73 129 102 24 12 45 25 48 29 10 13 137 39 189 39 46 0 57 4 82 31 37 40 37 70 -3 115 -32 36 -32 36 -97 31 -198 -16 -380 -108 -506 -259 -64 -75 -129 -217 -141 -304 -2 -21 -6 -39 -8 -41 -2 -2 -743 -3 -1647 -3 l-1644 0 -11 57 c-19 93 -25 109 -92 225 -56 98 -174 202 -292 256 -80 37 -216 72 -280 72 -42 0 -52 -4 -79 -35z"/> </g> </svg> 