 <svg  version="1.0" xmlns="http://www.w3.org/2000/svg"  width="300.000000pt" height="244.000000pt" viewBox="0 0 300.000000 244.000000"  preserveAspectRatio="xMidYMid meet">  <g transform="translate(0.000000,244.000000) scale(0.100000,-0.100000)" fill="#ffffff" stroke="none"> <path d="M57 2433 l63 -4 0 -309 0 -309 -63 -4 -62 -3 62 -2 63 -2 3 -902 c2 -846 2 -826 5 315 l2 1217 120 0 120 0 2 -1217 c2 -670 4 -1068 5 -886 l3 333 55 0 55 0 2 -332 2 -333 7 395 c4 217 7 640 8 938 l0 544 56 1 55 2 3 -940 c2 -930 2 -927 5 278 l2 1217 120 0 120 0 0 -590 0 -590 -55 0 -55 0 0 579 c0 376 -4 582 -10 586 -7 4 -10 -401 -10 -1206 0 -827 3 -1210 10 -1203 7 7 10 215 8 622 l-3 612 57 0 58 0 3 -622 c2 -581 2 -566 5 220 l2 842 60 0 60 0 2 -842 c2 -464 4 -675 5 -470 l3 372 55 0 55 0 3 -373 c2 -369 2 -368 3 68 0 242 -1 412 -3 377 l-4 -62 -54 0 -55 0 0 478 c0 262 0 635 0 829 0 229 -3 354 -10 358 -7 4 -10 -113 -10 -359 l0 -366 -55 0 -55 0 0 370 0 370 120 0 120 0 3 -492 2 -493 3 493 2 492 55 0 55 0 1 -422 c0 -281 3 -415 10 -399 6 14 8 185 7 422 l-3 399 58 0 57 0 2 -392 c1 -216 4 -358 5 -315 l4 77 54 0 55 0 1 -62 c1 -48 3 -57 9 -36 4 14 8 129 9 255 l0 228 56 3 55 3 3 -263 c2 -222 3 -203 5 120 l2 382 120 0 120 0 3 -432 2 -433 3 433 2 432 55 0 55 0 2 -487 c0 -319 4 -455 9 -393 4 52 5 272 2 488 l-5 392 61 0 61 0 3 -1217 2 -1218 3 1218 2 1217 55 0 55 0 3 -1217 2 -1218 3 1218 2 1217 60 0 60 0 2 -1217 c2 -670 4 -1068 5 -885 l3 332 60 0 60 0 3 -328 c2 -180 3 -49 2 291 l0 617 57 0 58 0 3 -622 c1 -343 3 -75 5 595 l2 1217 55 0 55 0 0 -1215 c0 -813 3 -1215 10 -1215 7 0 9 400 8 1215 l-3 1215 57 0 58 0 3 -1217 2 -1218 3 1218 2 1217 55 0 55 0 3 -1217 2 -1218 3 1223 2 1222 -1502 -2 c-827 -1 -1475 -3 -1441 -5z m433 -883 l0 -880 -55 0 -55 0 0 880 0 880 55 0 55 0 0 -880z m130 610 l0 -270 -58 0 -58 0 -1 270 -1 270 59 0 59 0 0 -270z m870 -40 l0 -310 -55 0 -55 0 0 310 0 310 55 0 55 0 0 -310z m130 195 l0 -115 -55 0 -55 0 0 115 0 115 55 0 55 0 0 -115z m1000 -475 l0 -590 -55 0 -55 0 0 585 c0 383 -3 585 -10 585 -7 0 -10 -298 -10 -875 l0 -875 -55 0 -55 0 0 880 0 880 120 0 120 0 0 -590z"/> <path d="M4 2120 c0 -168 2 -236 3 -152 2 83 2 221 0 305 -1 83 -3 15 -3 -153z"/> <path d="M240 1210 c0 -800 3 -1210 10 -1210 7 0 10 410 10 1210 0 800 -3 1210 -10 1210 -7 0 -10 -410 -10 -1210z"/> <path d="M1740 2040 c0 -252 3 -379 10 -375 6 4 10 140 10 375 0 235 -4 371 -10 375 -7 4 -10 -123 -10 -375z"/> <path d="M5 890 c0 -492 1 -694 2 -447 2 246 2 648 0 895 -1 246 -2 44 -2 -448z"/> <path d="M1430 1651 c-221 -61 -364 -238 -376 -464 -16 -293 209 -531 501 -531 217 1 397 127 476 333 15 40 16 51 5 60 -10 8 -15 2 -25 -29 -6 -21 -23 -63 -36 -92 l-25 -53 5 40 c4 23 0 64 -9 95 -14 50 -13 56 1 68 25 18 57 15 87 -9 l26 -21 -3 114 c-3 98 -7 123 -33 185 -78 190 -241 306 -450 318 -57 3 -97 0 -144 -14z m160 -59 c109 -81 160 -168 146 -245 l-7 -35 -69 43 c-39 23 -112 56 -163 73 -93 31 -261 58 -291 46 -33 -13 -14 17 37 57 62 50 132 84 205 100 28 7 52 16 52 21 0 5 6 4 13 -1 6 -6 41 -32 77 -59z m79 37 c47 -11 156 -62 166 -79 3 -6 10 -8 15 -5 19 12 43 -47 48 -115 5 -70 -6 -137 -34 -200 l-15 -36 -55 55 c-53 53 -54 55 -43 88 12 37 5 81 -21 133 -18 35 -111 129 -160 162 l-25 17 40 -5 c22 -3 60 -10 84 -15z m309 -244 c35 -70 52 -139 52 -217 l0 -67 -30 5 c-19 4 -38 1 -54 -9 -24 -16 -25 -16 -55 31 l-30 48 26 64 c22 53 27 81 27 153 1 87 1 88 20 65 10 -13 30 -45 44 -73z m-530 41 c79 -21 156 -54 220 -97 49 -31 50 -33 35 -56 -20 -30 -123 -80 -192 -93 -61 -11 -286 -13 -380 -3 l-63 6 7 46 c10 65 32 129 65 183 16 25 27 48 24 50 -8 9 225 -21 284 -36z m340 -199 l53 -54 -44 -60 c-98 -132 -275 -238 -494 -294 l-73 -18 -35 37 c-52 54 -104 167 -119 253 -7 41 -12 75 -12 76 1 1 33 -2 70 -8 38 -6 139 -9 225 -7 190 6 268 26 328 87 21 21 40 39 43 40 3 0 29 -23 58 -52z m96 -119 c25 -41 25 -43 7 -63 -29 -32 -69 -106 -121 -227 l-50 -113 -57 -12 c-125 -26 -238 -9 -350 52 -33 18 -64 31 -67 28 -3 -4 -6 -2 -6 4 0 5 33 17 73 26 98 24 224 77 311 131 68 43 216 184 216 206 0 22 20 7 44 -32z m54 -153 c4 -53 1 -69 -19 -104 -12 -22 -28 -41 -34 -41 -7 0 -20 -9 -30 -20 -10 -11 -38 -31 -61 -45 -24 -14 -44 -31 -44 -37 0 -6 -2 -9 -5 -6 -7 7 103 250 139 307 25 39 30 42 38 26 6 -10 13 -46 16 -80z"/> <path d="M1995 430 c0 -239 1 -337 2 -218 2 120 2 316 0 435 -1 120 -2 22 -2 -217z"/> <path d="M1875 375 c0 -209 1 -296 2 -193 2 103 2 274 0 380 -1 106 -2 22 -2 -187z"/> <path d="M1241 368 c-1 -239 3 -368 9 -368 12 0 12 686 0 715 -5 12 -9 -133 -9 -347z"/> <path d="M1374 335 c0 -187 2 -262 3 -167 2 95 2 248 0 340 -1 92 -3 14 -3 -173z"/> <path d="M1741 334 c0 -186 4 -330 9 -319 8 21 3 645 -5 654 -3 2 -5 -148 -4 -335z"/> <path d="M1624 320 c0 -179 2 -252 3 -162 2 89 2 235 0 325 -1 89 -3 16 -3 -163z"/> <path d="M1490 315 c0 -210 4 -315 10 -305 6 9 10 135 10 305 0 170 -4 296 -10 305 -6 10 -10 -95 -10 -305z"/> </g> </svg> 