 <svg  version="1.0" xmlns="http://www.w3.org/2000/svg"  width="200.000000pt" height="200.000000pt" viewBox="0 0 200.000000 200.000000"  preserveAspectRatio="xMidYMid meet">  <g transform="translate(0.000000,200.000000) scale(0.100000,-0.100000)" fill="#ffffff" stroke="none"> <path d="M730 1554 c-305 -107 -569 -202 -586 -210 -40 -19 -58 -55 -43 -86 13 -26 488 -427 528 -445 63 -29 98 -20 675 182 307 108 572 203 588 211 35 18 52 57 38 84 -16 30 -495 429 -535 446 -19 7 -51 14 -72 14 -23 -1 -262 -80 -593 -196z m653 142 c30 -13 465 -372 496 -410 13 -15 12 -19 -5 -36 -25 -25 -1124 -410 -1170 -410 -19 0 -48 7 -64 15 -35 18 -481 391 -494 413 -6 11 -3 20 11 32 11 9 204 81 429 159 799 281 738 263 797 237z"/> <path d="M60 1186 c0 -13 8 -33 18 -44 9 -11 128 -112 264 -225 264 -220 286 -234 378 -225 42 5 1143 383 1202 414 31 16 48 43 48 75 l0 22 -22 -20 c-13 -11 -29 -23 -36 -27 -7 -4 -268 -98 -580 -208 -508 -179 -574 -200 -632 -201 -42 0 -76 5 -96 16 -18 9 -147 113 -288 232 -216 181 -256 211 -256 191z"/> <path d="M64 1091 c3 -18 6 -37 6 -41 0 -14 511 -435 542 -447 87 -32 108 -26 729 191 629 220 629 221 629 289 l0 32 -23 -28 c-19 -23 -107 -57 -597 -229 -393 -137 -592 -203 -630 -206 -100 -8 -115 1 -380 224 -135 113 -253 215 -263 227 l-19 22 6 -34z"/> <path d="M60 1003 c0 -12 4 -33 9 -46 11 -27 476 -423 531 -453 24 -12 56 -18 100 -17 58 0 125 21 636 201 315 110 581 206 592 213 25 15 42 51 42 85 l0 25 -23 -26 c-17 -20 -139 -67 -602 -231 -520 -184 -587 -206 -645 -206 -46 -1 -76 5 -102 18 -41 21 -513 416 -528 442 -8 15 -9 14 -10 -5z"/> <path d="M60 898 c0 -49 32 -81 272 -282 268 -223 298 -241 388 -233 41 3 1140 381 1202 413 33 17 48 43 48 80 l0 28 -28 -27 c-22 -21 -160 -73 -603 -228 -350 -123 -594 -203 -624 -205 -87 -7 -126 15 -352 206 -115 96 -229 195 -255 219 -30 27 -48 38 -48 29z"/> <path d="M60 791 c0 -32 40 -70 314 -298 200 -167 223 -183 273 -193 30 -7 71 -9 91 -5 19 3 267 88 551 187 284 99 542 189 573 200 65 22 108 60 108 95 l0 24 -23 -26 c-17 -20 -138 -66 -597 -227 -361 -126 -595 -203 -628 -206 -99 -9 -118 2 -386 228 -136 115 -254 217 -262 227 -12 17 -13 16 -14 -6z"/> </g> </svg> 