 <svg version="1.0" xmlns="http://www.w3.org/2000/svg" width="300.000000pt" height="139.000000pt" viewBox="0 0 300.000000 139.000000" preserveAspectRatio="xMidYMid meet">  <g transform="translate(0.000000,139.000000) scale(0.050000,-0.050000)" fill="#1a1919" stroke="none"> <path d="M2680 2336 c-137 -93 -164 -160 -157 -388 9 -269 75 -377 257 -416 103 -22 156 -374 72 -473 -29 -35 -52 -87 -52 -118 0 -72 -38 -76 -800 -92 -314 -6 -678 -19 -810 -30 -132 -10 -393 -17 -580 -16 -187 1 -401 -5 -475 -13 l-135 -15 0 -65 0 -65 85 21 c116 29 2795 43 2795 14 0 -12 75 -20 191 -20 123 0 187 7 179 20 -17 27 2628 28 2699 0 48 -18 51 -16 51 47 l0 67 -225 13 c-124 7 -522 13 -885 13 -363 1 -697 9 -742 20 -45 10 -225 23 -401 28 -369 11 -427 21 -427 74 0 21 -13 38 -30 38 -21 0 -30 -21 -30 -71 0 -68 -78 -137 -97 -86 -4 10 -21 7 -38 -7 -25 -21 -33 -21 -40 -1 -6 18 -16 17 -38 -5 -17 -17 -41 -24 -54 -16 -12 8 -42 12 -66 9 -55 -7 -80 193 -27 213 45 17 59 47 60 127 0 113 23 197 53 197 15 0 27 -16 27 -35 1 -30 3 -31 20 -5 16 25 20 23 20 -10 1 -38 2 -38 22 -4 32 55 7 94 -61 94 -61 0 -80 26 -39 51 14 9 18 43 10 92 -8 47 -5 77 8 77 11 0 20 -13 20 -30 0 -16 9 -30 20 -30 11 0 20 14 20 30 0 17 9 30 20 30 11 0 20 -40 20 -90 0 -49 9 -90 20 -90 12 0 20 -72 20 -177 0 -187 27 -247 105 -236 47 7 69 33 27 33 -19 0 -29 8 -23 19 6 10 5 23 -4 28 -9 5 -10 85 -2 176 8 92 15 187 15 212 2 33 14 45 49 45 292 0 388 615 127 808 -94 69 -675 75 -774 8z m740 -354 c0 -109 5 -213 12 -230 11 -28 -11 -32 -160 -32 -155 0 -172 -4 -172 -38 0 -43 -41 -66 -78 -43 -13 8 -21 27 -18 43 5 22 -32 31 -164 39 -126 9 -147 13 -80 19 l90 7 -75 8 -75 7 0 209 0 209 360 0 360 0 0 -198z"></path> <path d="M2740 1970 c0 -123 7 -170 25 -170 14 0 58 -6 99 -13 l73 -12 -9 103 -10 102 131 0 131 0 0 -100 0 -100 100 0 100 0 0 180 0 180 -320 0 -320 0 0 -170z"></path> <path d="M2964 1875 c3 -36 15 -64 26 -63 11 1 31 -12 44 -30 19 -26 28 -27 50 -6 21 22 20 24 -9 13 -20 -8 -35 -4 -35 9 0 12 27 22 60 22 53 0 60 7 60 60 0 59 -2 60 -101 60 l-102 0 7 -65z"></path> <path d="M3031 1035 c6 -15 37 -29 70 -31 62 -5 81 23 29 43 -16 7 -30 3 -30 -8 0 -13 -14 -13 -40 1 -30 16 -37 15 -29 -5z"></path> <path d="M2942 952 c18 -17 178 -26 178 -9 0 9 -42 17 -93 17 -52 0 -90 -4 -85 -8z"></path> <path d="M180 657 c-200 -41 -180 -19 -180 -200 0 -175 21 -215 115 -216 25 -1 45 -8 45 -16 0 -8 20 -16 45 -18 56 -4 99 -14 126 -31 11 -7 118 -19 238 -26 189 -11 222 -19 253 -57 27 -32 37 -35 38 -13 1 27 3 27 20 0 16 -25 19 -24 20 7 0 31 5 34 30 13 16 -14 30 -18 30 -10 0 8 13 4 28 -9 16 -12 33 -15 39 -6 12 19 197 17 229 -2 12 -8 28 -3 36 10 10 16 5 18 -14 7 -15 -9 -21 -9 -13 1 31 33 97 26 70 -8 -17 -21 -17 -26 -2 -17 33 20 89 -6 74 -33 -8 -13 -6 -16 4 -7 32 29 27 72 -8 59 -35 -12 -33 -9 23 34 20 15 35 19 33 9 -8 -41 2 -70 21 -58 12 7 17 19 12 26 -4 8 14 15 41 17 46 3 47 1 13 -25 -34 -27 -34 -27 4 -15 40 14 40 14 1 -35 -22 -26 -27 -37 -11 -23 34 30 67 33 50 5 -7 -11 -2 -20 11 -20 13 0 18 13 12 29 -6 17 -1 36 11 43 14 9 16 5 6 -12 -13 -20 -7 -23 22 -12 21 9 63 19 94 23 l56 7 -46 -38 c-46 -39 -45 -39 251 -39 283 -1 298 1 336 44 l39 45 -12 -50 -12 -50 39 45 c22 25 45 45 52 45 7 0 2 -20 -12 -45 -21 -41 -20 -42 10 -18 21 18 33 20 33 5 0 -40 41 -23 59 26 20 53 61 88 61 52 0 -13 -9 -42 -21 -66 -20 -43 -19 -43 13 1 42 58 74 58 58 0 -11 -41 -10 -42 16 -10 35 43 62 46 47 5 -7 -16 -4 -30 5 -30 10 0 22 16 27 35 6 19 16 49 24 67 11 28 -47 33 -553 45 -1547 36 -2528 238 -2080 429 52 22 146 50 209 63 63 13 115 28 115 32 0 15 -185 6 -280 -14z"></path> <path d="M1884 665 c-58 -4 -100 -15 -94 -24 6 -10 -17 -24 -49 -31 -33 -7 -58 -23 -56 -36 3 -12 -16 -32 -41 -43 -33 -15 -43 -32 -35 -64 7 -27 0 -47 -20 -55 -38 -14 13 -104 68 -119 18 -5 -10 -6 -62 -2 -52 3 -105 13 -118 21 -14 8 -18 6 -10 -8 10 -15 -1 -18 -31 -10 -26 6 -79 12 -120 12 -41 1 -69 9 -64 18 6 9 -12 16 -38 16 -52 0 -103 84 -90 146 3 17 -1 32 -9 33 -53 4 -59 0 -35 -29 13 -16 19 -43 13 -60 -16 -41 -153 -32 -153 10 -1 26 -3 27 -19 0 -16 -24 -30 -25 -80 -6 -34 12 -61 14 -61 4 0 -25 -135 -23 -150 2 -7 11 -47 17 -90 14 -51 -4 -82 3 -89 20 -5 14 -24 26 -40 26 -17 0 -31 8 -31 19 0 19 78 52 107 44 10 -2 28 4 40 14 13 9 48 23 78 31 69 16 71 42 5 47 -125 11 -530 -116 -530 -165 0 -159 916 -274 2534 -318 261 -7 235 39 -31 57 -271 17 -498 62 -567 112 -43 31 -88 39 -219 39 -197 0 -196 0 88 167 206 121 222 135 150 129 -25 -2 -92 -7 -151 -11z"></path> <path d="M1955 545 l-216 -135 132 -6 132 -6 158 126 c273 219 133 233 -206 21z"></path> <path d="M2384 652 c-19 -10 -88 -64 -154 -119 -66 -55 -127 -107 -136 -114 -9 -7 125 -11 298 -8 321 6 349 13 346 89 0 17 -9 10 -19 -15 -10 -25 -22 -45 -26 -45 -15 0 11 80 29 91 39 24 15 49 -47 49 -67 1 -133 29 -112 49 6 7 36 3 66 -9 61 -23 171 -20 171 4 0 9 -25 17 -55 18 l-55 2 50 17 c33 11 -13 15 -136 13 -102 -2 -201 -12 -220 -22z"></path> <path d="M3390 661 c38 -17 38 -18 -5 -20 -25 0 -45 -9 -45 -18 0 -18 99 -12 165 9 19 6 35 1 35 -10 0 -12 -29 -28 -64 -37 -35 -9 -67 -30 -71 -46 -7 -25 -5 -25 12 0 18 26 22 26 30 0 5 -16 14 -45 21 -65 7 -24 4 -31 -11 -22 -13 8 -19 3 -13 -14 11 -33 60 -38 81 -9 9 14 14 12 15 -4 0 -14 10 -25 21 -25 12 0 17 7 12 15 -11 17 45 16 277 -6 185 -17 185 -18 -12 153 l-117 101 -185 8 c-119 5 -172 1 -146 -10z"></path> <path d="M3800 661 c0 -8 63 -71 139 -139 l140 -124 141 6 142 6 -193 126 c-179 119 -369 183 -369 125z"></path> <path d="M4040 675 c0 -6 96 -73 214 -148 l214 -137 -187 -6 c-138 -4 -194 -13 -209 -35 -26 -36 -199 -84 -352 -99 -60 -5 -155 -15 -210 -21 -55 -6 -111 -12 -125 -14 -14 -1 -25 -10 -25 -20 0 -11 13 -14 29 -8 17 6 34 4 39 -4 5 -8 48 -13 96 -11 47 3 271 10 496 16 1214 36 2136 200 1955 347 -39 32 -351 111 -386 97 -18 -6 -26 -3 -19 8 7 12 -13 20 -48 20 -96 0 -90 -34 13 -72 52 -20 102 -45 112 -57 11 -14 19 -13 26 3 5 13 23 19 38 13 43 -17 35 -47 -12 -47 -23 0 -36 -9 -29 -20 12 -19 -28 -29 -85 -22 -13 2 -42 -6 -64 -17 -22 -12 -100 -22 -175 -23 -95 -1 -147 -12 -173 -34 -34 -31 -39 -30 -73 16 l-38 50 -20 -50 c-11 -28 -20 -38 -21 -24 0 15 -10 21 -21 14 -11 -7 -20 -3 -20 9 0 38 -35 22 -46 -21 -7 -25 -21 -36 -34 -28 -33 21 -220 24 -220 4 0 -26 -126 -7 -135 21 -5 14 8 26 28 26 32 1 31 4 -5 19 -40 16 -78 72 -71 105 2 8 -6 15 -17 15 -11 0 -20 13 -20 28 0 15 -14 33 -31 40 -17 6 -26 21 -19 32 7 12 -11 20 -44 20 -31 0 -117 6 -191 13 -74 7 -135 8 -135 2z"></path> <path d="M5790 635 c88 -26 171 -53 185 -62 17 -10 25 -3 25 24 0 51 -40 65 -220 75 l-150 8 160 -45z"></path> <path d="M769 639 c84 -25 329 -29 354 -4 14 14 -49 21 -196 21 -159 1 -201 -3 -158 -17z"></path> <path d="M2880 550 c0 -63 8 -90 28 -90 15 0 38 -13 52 -30 82 -99 280 -17 280 117 l0 93 -180 0 -180 0 0 -90z m265 16 c-36 -5 -94 -5 -130 0 -36 4 -6 8 65 8 72 0 101 -4 65 -8z"></path> <path d="M5867 358 c-255 -90 -1418 -216 -2021 -218 -71 0 -83 -6 -74 -35 10 -31 9 -32 -10 -2 -35 53 -330 53 -313 -1 7 -21 3 -44 -8 -51 -12 -8 -21 4 -21 27 0 41 -26 69 -45 50 -22 -22 44 -115 84 -118 38 -3 50 13 43 60 -2 11 16 -2 39 -30 23 -27 37 -39 30 -25 -23 44 11 70 41 31 25 -32 26 -30 9 19 -28 77 10 71 51 -8 25 -49 36 -57 50 -35 15 24 21 24 36 1 14 -23 19 -23 30 0 9 21 15 21 24 2 6 -14 20 -25 30 -25 12 0 11 15 -1 39 -34 62 -24 70 18 16 42 -53 452 -82 482 -33 14 22 432 61 549 51 44 -4 91 1 105 12 13 11 47 14 75 7 36 -9 50 -5 50 16 0 22 22 27 93 22 52 -5 104 -2 115 5 12 8 49 16 82 18 33 3 107 8 165 12 57 4 111 14 118 21 19 19 52 18 40 -2 -6 -8 7 -15 27 -15 20 0 33 6 28 14 -5 8 41 24 102 37 l110 23 0 78 c0 44 -7 78 -15 76 -8 -1 -61 -19 -118 -39z"></path> <path d="M2040 370 c0 -36 376 -110 563 -110 85 0 95 5 113 58 l20 57 -348 3 c-191 2 -348 -2 -348 -8z"></path> <path d="M2980 310 c0 -69 1 -70 88 -70 87 0 88 1 88 70 0 69 -1 70 -88 70 -87 0 -88 -1 -88 -70z"></path> <path d="M3428 353 c7 -20 12 -49 12 -65 0 -17 20 -28 50 -28 56 0 59 6 29 61 -32 60 -4 46 31 -16 l32 -55 -10 60 c-10 55 -9 57 12 15 26 -53 60 -61 43 -10 -11 31 -9 30 17 -2 33 -44 277 -17 349 38 32 24 0 28 -248 27 -205 -1 -285 -7 -285 -24 0 -15 -9 -12 -22 6 -18 25 -20 24 -10 -7z"></path> <path d="M2980 189 c0 -24 19 -30 83 -25 120 9 127 56 9 56 -70 0 -92 -7 -92 -31z"></path> <path d="M2980 102 c0 -77 23 -102 92 -102 64 0 68 4 68 70 0 68 -2 70 -80 70 -66 0 -80 -7 -80 -38z"></path> </g> </svg> 